<mxfile host="app.diagrams.net" agent="Mozilla/5.0 (Windows NT 10.0; Win64; x64) AppleWebKit/537.36 (KHTML, like Gecko) Chrome/133.0.0.0 Safari/537.36" version="26.0.16">
  <diagram name="Page-1" id="khiKNV9_wSGJ7rBO3mhU">
    <mxGraphModel dx="2204" dy="1820" grid="0" gridSize="10" guides="1" tooltips="1" connect="1" arrows="1" fold="1" page="1" pageScale="1" pageWidth="850" pageHeight="1100" math="0" shadow="0">
      <root>
        <mxCell id="0" />
        <mxCell id="1" parent="0" />
        <mxCell id="OyTotf3cjlx3w-jjL12O-33" value="" style="rounded=0;whiteSpace=wrap;html=1;strokeColor=#808080;" vertex="1" parent="1">
          <mxGeometry x="-224" y="-230" width="1180" height="706" as="geometry" />
        </mxCell>
        <mxCell id="OyTotf3cjlx3w-jjL12O-16" style="edgeStyle=orthogonalEdgeStyle;rounded=0;orthogonalLoop=1;jettySize=auto;html=1;exitX=1;exitY=0.25;exitDx=0;exitDy=0;entryX=0;entryY=0.5;entryDx=0;entryDy=0;strokeColor=#0000FF;" edge="1" parent="1" source="OyTotf3cjlx3w-jjL12O-6" target="OyTotf3cjlx3w-jjL12O-15">
          <mxGeometry relative="1" as="geometry" />
        </mxCell>
        <mxCell id="OyTotf3cjlx3w-jjL12O-6" value="" style="rounded=0;whiteSpace=wrap;html=1;fillColor=#ffff88;strokeColor=#36393d;" vertex="1" parent="1">
          <mxGeometry x="40" y="10" width="190" height="450" as="geometry" />
        </mxCell>
        <mxCell id="OyTotf3cjlx3w-jjL12O-1" value="VDI Host&lt;div&gt;(Windows&lt;span style=&quot;background-color: transparent; color: light-dark(rgb(0, 0, 0), rgb(255, 255, 255));&quot;&gt;)&lt;/span&gt;&lt;/div&gt;" style="rounded=0;whiteSpace=wrap;html=1;fillColor=#cdeb8b;strokeColor=#36393d;" vertex="1" parent="1">
          <mxGeometry x="80" y="80" width="120" height="50" as="geometry" />
        </mxCell>
        <mxCell id="OyTotf3cjlx3w-jjL12O-2" value="UAT 1 #1&amp;nbsp;&lt;div&gt;(&lt;span style=&quot;background-color: transparent; color: light-dark(rgb(0, 0, 0), rgb(255, 255, 255));&quot;&gt;Linux)&lt;/span&gt;&lt;/div&gt;" style="rounded=0;whiteSpace=wrap;html=1;fillColor=#cce5ff;strokeColor=#36393d;" vertex="1" parent="1">
          <mxGeometry x="80" y="160" width="120" height="50" as="geometry" />
        </mxCell>
        <mxCell id="OyTotf3cjlx3w-jjL12O-3" value="UAT 1 #2&lt;div&gt;(Linux)&lt;/div&gt;" style="rounded=0;whiteSpace=wrap;html=1;fillColor=#cce5ff;strokeColor=#36393d;" vertex="1" parent="1">
          <mxGeometry x="80" y="240" width="120" height="50" as="geometry" />
        </mxCell>
        <mxCell id="OyTotf3cjlx3w-jjL12O-4" value="UAT 2&lt;div&gt;(Linux)&lt;/div&gt;" style="rounded=0;whiteSpace=wrap;html=1;fillColor=#cce5ff;strokeColor=#36393d;" vertex="1" parent="1">
          <mxGeometry x="80" y="320" width="120" height="50" as="geometry" />
        </mxCell>
        <mxCell id="OyTotf3cjlx3w-jjL12O-5" value="UAT 3&lt;div&gt;(Linux)&lt;/div&gt;" style="rounded=0;whiteSpace=wrap;html=1;fillColor=#cce5ff;strokeColor=#36393d;" vertex="1" parent="1">
          <mxGeometry x="80" y="390" width="120" height="50" as="geometry" />
        </mxCell>
        <mxCell id="OyTotf3cjlx3w-jjL12O-7" value="&lt;b&gt;JMeter Scipt&lt;/b&gt;&lt;div&gt;(HTTPS, SFTP, MQ)&lt;/div&gt;" style="text;html=1;align=left;verticalAlign=middle;whiteSpace=wrap;rounded=0;" vertex="1" parent="1">
          <mxGeometry x="50" y="20" width="140" height="30" as="geometry" />
        </mxCell>
        <mxCell id="OyTotf3cjlx3w-jjL12O-9" style="edgeStyle=orthogonalEdgeStyle;rounded=1;orthogonalLoop=1;jettySize=auto;html=1;entryX=0;entryY=0.5;entryDx=0;entryDy=0;exitX=0.5;exitY=1;exitDx=0;exitDy=0;strokeColor=#0000FF;curved=0;" edge="1" parent="1" source="OyTotf3cjlx3w-jjL12O-8" target="OyTotf3cjlx3w-jjL12O-1">
          <mxGeometry relative="1" as="geometry">
            <mxPoint x="-40" y="120" as="targetPoint" />
          </mxGeometry>
        </mxCell>
        <mxCell id="OyTotf3cjlx3w-jjL12O-8" value="&lt;div&gt;Resolve from&lt;/div&gt;DNS Server" style="rounded=0;whiteSpace=wrap;html=1;fillColor=#ffcc99;strokeColor=#36393d;" vertex="1" parent="1">
          <mxGeometry x="-90" y="10" width="100" height="40" as="geometry" />
        </mxCell>
        <mxCell id="OyTotf3cjlx3w-jjL12O-11" style="edgeStyle=orthogonalEdgeStyle;rounded=1;orthogonalLoop=1;jettySize=auto;html=1;exitX=0.5;exitY=1;exitDx=0;exitDy=0;entryX=0;entryY=0.75;entryDx=0;entryDy=0;strokeColor=#0000FF;curved=0;" edge="1" parent="1" source="OyTotf3cjlx3w-jjL12O-10" target="OyTotf3cjlx3w-jjL12O-5">
          <mxGeometry relative="1" as="geometry" />
        </mxCell>
        <mxCell id="OyTotf3cjlx3w-jjL12O-12" style="edgeStyle=orthogonalEdgeStyle;rounded=1;orthogonalLoop=1;jettySize=auto;html=1;exitX=0.5;exitY=1;exitDx=0;exitDy=0;entryX=0;entryY=0.5;entryDx=0;entryDy=0;strokeColor=#0000FF;curved=0;" edge="1" parent="1" source="OyTotf3cjlx3w-jjL12O-10" target="OyTotf3cjlx3w-jjL12O-2">
          <mxGeometry relative="1" as="geometry" />
        </mxCell>
        <mxCell id="OyTotf3cjlx3w-jjL12O-13" style="edgeStyle=orthogonalEdgeStyle;rounded=1;orthogonalLoop=1;jettySize=auto;html=1;exitX=0.5;exitY=1;exitDx=0;exitDy=0;entryX=0;entryY=0.5;entryDx=0;entryDy=0;strokeColor=#0000FF;curved=0;" edge="1" parent="1" source="OyTotf3cjlx3w-jjL12O-10" target="OyTotf3cjlx3w-jjL12O-3">
          <mxGeometry relative="1" as="geometry" />
        </mxCell>
        <mxCell id="OyTotf3cjlx3w-jjL12O-14" style="edgeStyle=orthogonalEdgeStyle;rounded=1;orthogonalLoop=1;jettySize=auto;html=1;exitX=0.5;exitY=1;exitDx=0;exitDy=0;entryX=0;entryY=0.5;entryDx=0;entryDy=0;strokeColor=#0000FF;curved=0;" edge="1" parent="1" source="OyTotf3cjlx3w-jjL12O-10" target="OyTotf3cjlx3w-jjL12O-4">
          <mxGeometry relative="1" as="geometry" />
        </mxCell>
        <mxCell id="OyTotf3cjlx3w-jjL12O-10" value="Resolve from /etc/hosts" style="rounded=0;whiteSpace=wrap;html=1;fillColor=#ffcc99;strokeColor=#36393d;" vertex="1" parent="1">
          <mxGeometry x="-200" y="10" width="100" height="40" as="geometry" />
        </mxCell>
        <mxCell id="OyTotf3cjlx3w-jjL12O-15" value="&lt;b&gt;&amp;nbsp;Load Balancer&lt;/b&gt;&lt;div&gt;&lt;b&gt;&lt;br&gt;&lt;/b&gt;&lt;div&gt;&lt;div&gt;&amp;nbsp;HTTPS (7843)&lt;/div&gt;&lt;div&gt;&amp;nbsp;SFTP (22&lt;span style=&quot;background-color: transparent; color: light-dark(rgb(0, 0, 0), rgb(255, 255, 255));&quot;&gt;)&lt;/span&gt;&lt;/div&gt;&lt;/div&gt;&lt;/div&gt;" style="rounded=0;whiteSpace=wrap;html=1;align=center;fillColor=#e1d5e7;strokeColor=#9673a6;" vertex="1" parent="1">
          <mxGeometry x="450" y="92" width="120" height="60" as="geometry" />
        </mxCell>
        <mxCell id="OyTotf3cjlx3w-jjL12O-17" value="arh-sg.btmuap.local&lt;br&gt;DC : 184.124.108.6&lt;br&gt;DR: 184.106.108.6" style="text;html=1;align=left;verticalAlign=middle;whiteSpace=wrap;rounded=0;" vertex="1" parent="1">
          <mxGeometry x="275.5" y="130" width="142" height="30" as="geometry" />
        </mxCell>
        <mxCell id="OyTotf3cjlx3w-jjL12O-20" value="" style="rounded=0;whiteSpace=wrap;html=1;fillColor=#ffff88;strokeColor=#36393d;" vertex="1" parent="1">
          <mxGeometry x="683" y="90" width="237" height="274" as="geometry" />
        </mxCell>
        <mxCell id="OyTotf3cjlx3w-jjL12O-23" value="App Server #1" style="rounded=0;whiteSpace=wrap;html=1;" vertex="1" parent="1">
          <mxGeometry x="749" y="155" width="120" height="60" as="geometry" />
        </mxCell>
        <mxCell id="OyTotf3cjlx3w-jjL12O-24" value="App Server #1" style="rounded=0;whiteSpace=wrap;html=1;" vertex="1" parent="1">
          <mxGeometry x="749" y="263" width="120" height="60" as="geometry" />
        </mxCell>
        <mxCell id="OyTotf3cjlx3w-jjL12O-25" value="&lt;b&gt;VIP&lt;/b&gt;" style="rounded=0;whiteSpace=wrap;html=1;dashed=1;fillColor=#d5e8d4;strokeColor=#82b366;" vertex="1" parent="1">
          <mxGeometry x="739" y="201.5" width="42" height="67" as="geometry" />
        </mxCell>
        <mxCell id="OyTotf3cjlx3w-jjL12O-26" style="edgeStyle=orthogonalEdgeStyle;rounded=0;orthogonalLoop=1;jettySize=auto;html=1;exitX=1;exitY=0.5;exitDx=0;exitDy=0;entryX=0;entryY=0.5;entryDx=0;entryDy=0;strokeColor=#CC0000;" edge="1" parent="1" source="OyTotf3cjlx3w-jjL12O-6" target="OyTotf3cjlx3w-jjL12O-25">
          <mxGeometry relative="1" as="geometry" />
        </mxCell>
        <mxCell id="OyTotf3cjlx3w-jjL12O-27" style="edgeStyle=orthogonalEdgeStyle;rounded=1;orthogonalLoop=1;jettySize=auto;html=1;entryX=0;entryY=0.5;entryDx=0;entryDy=0;exitX=0.5;exitY=1;exitDx=0;exitDy=0;strokeColor=#0000FF;curved=0;" edge="1" parent="1" source="OyTotf3cjlx3w-jjL12O-15" target="OyTotf3cjlx3w-jjL12O-23">
          <mxGeometry relative="1" as="geometry" />
        </mxCell>
        <mxCell id="OyTotf3cjlx3w-jjL12O-28" style="edgeStyle=orthogonalEdgeStyle;rounded=1;orthogonalLoop=1;jettySize=auto;html=1;exitX=0.5;exitY=1;exitDx=0;exitDy=0;entryX=0;entryY=0.5;entryDx=0;entryDy=0;strokeColor=#0000FF;curved=0;" edge="1" parent="1" source="OyTotf3cjlx3w-jjL12O-15" target="OyTotf3cjlx3w-jjL12O-24">
          <mxGeometry relative="1" as="geometry" />
        </mxCell>
        <mxCell id="OyTotf3cjlx3w-jjL12O-29" value="vipmq-arh-sg.btmuap.local&lt;br&gt;DC : 184.124.108.4&lt;br&gt;DR: 184.106.108.4" style="text;html=1;align=left;verticalAlign=middle;whiteSpace=wrap;rounded=0;" vertex="1" parent="1">
          <mxGeometry x="275.5" y="244" width="155" height="30" as="geometry" />
        </mxCell>
        <mxCell id="OyTotf3cjlx3w-jjL12O-34" value="&lt;b&gt;ARH Server&lt;/b&gt;" style="text;html=1;align=center;verticalAlign=middle;whiteSpace=wrap;rounded=0;" vertex="1" parent="1">
          <mxGeometry x="680" y="90" width="80" height="30" as="geometry" />
        </mxCell>
        <mxCell id="OyTotf3cjlx3w-jjL12O-36" value="&lt;b&gt;TESTING SCENARIO:&lt;/b&gt;&lt;div&gt;&lt;br&gt;&lt;/div&gt;&lt;div&gt;1. HTTPS&lt;/div&gt;&lt;div&gt;Need confirmation.&lt;/div&gt;&lt;div&gt;&lt;br&gt;&lt;/div&gt;&lt;div&gt;2. SFTP&lt;/div&gt;&lt;div&gt;Any to PEGA&lt;/div&gt;&lt;div&gt;&lt;br&gt;&lt;/div&gt;&lt;div&gt;3. MQ&lt;br&gt;&lt;div&gt;FIGW to YGN (Vice versa)&lt;/div&gt;&lt;div&gt;&lt;b&gt;&lt;br&gt;&lt;/b&gt;&lt;/div&gt;&lt;div&gt;&lt;b&gt;TO DO:&lt;/b&gt;&lt;/div&gt;&lt;/div&gt;&lt;div&gt;&lt;b&gt;- &lt;/b&gt;Get PEGA SOAP message.&lt;/div&gt;&lt;div&gt;- Create Script to monitor changes of resolved IP from guest&lt;/div&gt;" style="text;html=1;align=left;verticalAlign=middle;whiteSpace=wrap;rounded=0;" vertex="1" parent="1">
          <mxGeometry x="549" y="489" width="407" height="240" as="geometry" />
        </mxCell>
        <mxCell id="OyTotf3cjlx3w-jjL12O-39" style="edgeStyle=orthogonalEdgeStyle;rounded=1;orthogonalLoop=1;jettySize=auto;html=1;exitX=1;exitY=0.5;exitDx=0;exitDy=0;entryX=0.5;entryY=0;entryDx=0;entryDy=0;strokeColor=#0000FF;curved=0;" edge="1" parent="1" source="OyTotf3cjlx3w-jjL12O-37" target="OyTotf3cjlx3w-jjL12O-15">
          <mxGeometry relative="1" as="geometry" />
        </mxCell>
        <mxCell id="OyTotf3cjlx3w-jjL12O-40" style="edgeStyle=orthogonalEdgeStyle;rounded=1;orthogonalLoop=1;jettySize=auto;html=1;exitX=1;exitY=0.5;exitDx=0;exitDy=0;strokeColor=#CC0000;curved=0;" edge="1" parent="1" source="OyTotf3cjlx3w-jjL12O-37" target="OyTotf3cjlx3w-jjL12O-25">
          <mxGeometry relative="1" as="geometry">
            <Array as="points">
              <mxPoint x="634" y="-72" />
              <mxPoint x="634" y="235" />
            </Array>
          </mxGeometry>
        </mxCell>
        <mxCell id="OyTotf3cjlx3w-jjL12O-37" value="&lt;b&gt;Guest System&lt;/b&gt;" style="rounded=0;whiteSpace=wrap;html=1;" vertex="1" parent="1">
          <mxGeometry x="40" y="-102" width="189" height="60" as="geometry" />
        </mxCell>
      </root>
    </mxGraphModel>
  </diagram>
</mxfile>
